<svg width="57" height="18" viewBox="0 0 57 18" fill="none" xmlns="http://www.w3.org/2000/svg">
<g filter="url(#filter0_b_1_270)">
<rect width="18" height="18" rx="6" fill="white" fill-opacity="0.2"/>
</g>
<path d="M11.3905 6.41302C11.3905 7.78027 10.2821 8.88854 8.91497 8.88854C7.54781 8.88854 6.43945 7.78018 6.43945 6.41302C6.43945 5.04586 7.54781 3.9375 8.91497 3.9375C10.2821 3.9375 11.3905 5.04586 11.3905 6.41302Z" fill="white"/>
<path d="M12.4428 10.8958C12.1854 10.4095 11.7031 10.1191 11.153 10.1191H6.676C6.12618 10.1191 5.64444 10.4095 5.38686 10.8955C5.12927 11.3822 5.16026 11.9441 5.4847 12.4216C5.81036 12.9007 6.29935 13.2284 6.86191 13.3442C7.53288 13.482 8.22365 13.5518 8.91477 13.5518C9.60589 13.5518 10.2966 13.482 10.9676 13.3441C11.5299 13.2283 12.0193 12.9003 12.3458 12.4201L12.3604 12.3988C12.6695 11.9438 12.7005 11.3821 12.4429 10.8958L12.4428 10.8958Z" fill="white"/>
<path d="M23.032 13H24.22V9.268H25.564C27.328 9.268 28.66 8.572 28.66 6.868C28.66 5.212 27.46 4.504 25.624 4.504H23.032V13ZM24.22 5.512H25.504C26.62 5.512 27.46 5.848 27.46 6.868C27.46 7.876 26.644 8.26 25.48 8.26H24.22V5.512ZM29.5579 8.536V13H30.6859V10.012C30.6859 9.064 31.2019 8.188 32.2819 8.188C32.4619 8.188 32.6539 8.212 32.7979 8.248L32.8459 7.204C32.7139 7.168 32.5579 7.156 32.4019 7.156C31.6339 7.156 30.9739 7.612 30.6619 8.272H30.6259C30.6259 8.032 30.6019 7.6 30.5779 7.312H29.5099C29.5459 7.684 29.5579 8.236 29.5579 8.536ZM39.4547 10.144C39.4547 8.392 38.1227 7.156 36.3827 7.156C34.6427 7.156 33.3227 8.392 33.3227 10.144C33.3227 11.896 34.6427 13.156 36.3827 13.156C38.1227 13.156 39.4547 11.896 39.4547 10.144ZM38.2787 10.144C38.2787 11.224 37.6067 12.208 36.3827 12.208C35.1707 12.208 34.4867 11.224 34.4867 10.144C34.4867 9.064 35.1707 8.092 36.3827 8.092C37.6067 8.092 38.2787 9.064 38.2787 10.144ZM43.6949 7.312H42.3749V6.124C42.3749 5.428 42.5309 4.756 43.3829 4.756C43.5989 4.756 43.7789 4.792 43.9469 4.84L44.0789 3.868C43.8629 3.808 43.6349 3.784 43.3709 3.784C41.8349 3.784 41.2469 4.792 41.2469 6.124V7.312H40.1189V8.236H41.2469V13H42.3749V8.236H43.6949V7.312ZM45.9389 7.312H44.8109V13H45.9389V7.312ZM46.1309 5.26C46.1309 4.84 45.7829 4.528 45.3749 4.528C44.9669 4.528 44.6309 4.852 44.6309 5.26C44.6309 5.656 44.9669 5.98 45.3749 5.98C45.7829 5.98 46.1309 5.668 46.1309 5.26ZM49.0615 3.928H47.9335V13H49.0615V3.928ZM51.8067 9.652C51.8787 8.764 52.6227 8.044 53.5947 8.044C54.6387 8.044 55.1667 8.752 55.1907 9.652H51.8067ZM56.3307 10.108C56.3307 8.296 55.2747 7.156 53.5947 7.156C51.9267 7.156 50.6547 8.392 50.6547 10.168C50.6547 11.956 51.9267 13.156 53.6547 13.156C54.6627 13.156 55.4907 12.784 56.1027 11.992L55.3107 11.356C54.9867 11.836 54.4227 12.22 53.6547 12.22C52.6587 12.22 51.8427 11.464 51.8067 10.492H56.3187C56.3307 10.36 56.3307 10.228 56.3307 10.108Z" fill="white"/>
<defs>
<filter id="filter0_b_1_270" x="-6" y="-6" width="30" height="30" filterUnits="userSpaceOnUse" color-interpolation-filters="sRGB">
<feFlood flood-opacity="0" result="BackgroundImageFix"/>
<feGaussianBlur in="BackgroundImageFix" stdDeviation="3"/>
<feComposite in2="SourceAlpha" operator="in" result="effect1_backgroundBlur_1_270"/>
<feBlend mode="normal" in="SourceGraphic" in2="effect1_backgroundBlur_1_270" result="shape"/>
</filter>
</defs>
</svg>
