<svg width="335" height="65" viewBox="0 0 335 65" fill="none" xmlns="http://www.w3.org/2000/svg">
<rect width="335" height="65" rx="12" fill="#D8E9FF"/>
<path d="M122.734 26.625H124.883V34.1797C124.883 35.0495 124.695 35.7812 124.32 36.375C123.945 36.9635 123.435 37.4089 122.789 37.7109C122.143 38.0078 121.409 38.1562 120.586 38.1562C119.753 38.1562 119.01 38.0078 118.359 37.7109C117.708 37.4089 117.198 36.9635 116.828 36.375C116.458 35.7812 116.273 35.0495 116.273 34.1797V26.625H118.422V34.1797C118.422 34.7109 118.51 35.1458 118.688 35.4844C118.865 35.8177 119.115 36.0651 119.438 36.2266C119.76 36.388 120.143 36.4688 120.586 36.4688C121.034 36.4688 121.417 36.388 121.734 36.2266C122.057 36.0651 122.305 35.8177 122.477 35.4844C122.648 35.1458 122.734 34.7109 122.734 34.1797V26.625ZM128.828 31.1719V41.25H126.758V29.5469H128.672L128.828 31.1719ZM134.258 33.6875V33.8516C134.258 34.4661 134.185 35.0365 134.039 35.5625C133.898 36.0833 133.69 36.5391 133.414 36.9297C133.138 37.3151 132.794 37.6172 132.383 37.8359C131.977 38.0495 131.508 38.1562 130.977 38.1562C130.456 38.1562 130.003 38.0573 129.617 37.8594C129.232 37.6562 128.906 37.3698 128.641 37C128.375 36.6302 128.161 36.2005 128 35.7109C127.844 35.2161 127.727 34.6771 127.648 34.0938V33.5703C127.727 32.9505 127.844 32.388 128 31.8828C128.161 31.3724 128.375 30.9323 128.641 30.5625C128.906 30.1875 129.229 29.8984 129.609 29.6953C129.995 29.4922 130.445 29.3906 130.961 29.3906C131.497 29.3906 131.969 29.4922 132.375 29.6953C132.786 29.8984 133.133 30.1901 133.414 30.5703C133.695 30.9505 133.906 31.4036 134.047 31.9297C134.188 32.4557 134.258 33.0417 134.258 33.6875ZM132.188 33.8516V33.6875C132.188 33.3125 132.154 32.9661 132.086 32.6484C132.018 32.3255 131.914 32.0443 131.773 31.8047C131.633 31.5599 131.451 31.3698 131.227 31.2344C131.003 31.099 130.732 31.0312 130.414 31.0312C130.096 31.0312 129.823 31.0833 129.594 31.1875C129.365 31.2917 129.177 31.4401 129.031 31.6328C128.885 31.8255 128.771 32.0547 128.688 32.3203C128.609 32.5807 128.557 32.8698 128.531 33.1875V34.4844C128.578 34.8698 128.669 35.2161 128.805 35.5234C128.94 35.8307 129.138 36.0755 129.398 36.2578C129.664 36.4401 130.008 36.5312 130.43 36.5312C130.747 36.5312 131.018 36.4609 131.242 36.3203C131.466 36.1797 131.648 35.987 131.789 35.7422C131.93 35.4922 132.031 35.2057 132.094 34.8828C132.156 34.5599 132.188 34.2161 132.188 33.8516ZM137.953 26V38H135.883V26H137.953ZM139.555 33.8594V33.6953C139.555 33.0755 139.643 32.5052 139.82 31.9844C139.997 31.4583 140.255 31.0026 140.594 30.6172C140.932 30.2318 141.346 29.9323 141.836 29.7188C142.326 29.5 142.883 29.3906 143.508 29.3906C144.143 29.3906 144.706 29.5 145.195 29.7188C145.69 29.9323 146.107 30.2318 146.445 30.6172C146.784 31.0026 147.042 31.4583 147.219 31.9844C147.396 32.5052 147.484 33.0755 147.484 33.6953V33.8594C147.484 34.474 147.396 35.0443 147.219 35.5703C147.042 36.0911 146.784 36.5469 146.445 36.9375C146.107 37.3229 145.693 37.6224 145.203 37.8359C144.714 38.0495 144.154 38.1562 143.523 38.1562C142.898 38.1562 142.339 38.0495 141.844 37.8359C141.349 37.6224 140.932 37.3229 140.594 36.9375C140.255 36.5469 139.997 36.0911 139.82 35.5703C139.643 35.0443 139.555 34.474 139.555 33.8594ZM141.617 33.6953V33.8594C141.617 34.2292 141.654 34.5755 141.727 34.8984C141.799 35.2214 141.911 35.5052 142.062 35.75C142.214 35.9948 142.409 36.1875 142.648 36.3281C142.893 36.4635 143.185 36.5312 143.523 36.5312C143.857 36.5312 144.143 36.4635 144.383 36.3281C144.622 36.1875 144.818 35.9948 144.969 35.75C145.125 35.5052 145.24 35.2214 145.312 34.8984C145.385 34.5755 145.422 34.2292 145.422 33.8594V33.6953C145.422 33.3307 145.385 32.9896 145.312 32.6719C145.24 32.349 145.125 32.0651 144.969 31.8203C144.818 31.5703 144.62 31.375 144.375 31.2344C144.135 31.0885 143.846 31.0156 143.508 31.0156C143.174 31.0156 142.888 31.0885 142.648 31.2344C142.409 31.375 142.214 31.5703 142.062 31.8203C141.911 32.0651 141.799 32.349 141.727 32.6719C141.654 32.9896 141.617 33.3307 141.617 33.6953ZM153.641 36.2031V32.3047C153.641 32.0182 153.591 31.7708 153.492 31.5625C153.393 31.3542 153.242 31.1927 153.039 31.0781C152.836 30.9635 152.578 30.9062 152.266 30.9062C151.99 30.9062 151.747 30.9531 151.539 31.0469C151.336 31.1406 151.18 31.2734 151.07 31.4453C150.961 31.612 150.906 31.8047 150.906 32.0234H148.836C148.836 31.6745 148.919 31.3438 149.086 31.0312C149.253 30.7135 149.49 30.4323 149.797 30.1875C150.109 29.9375 150.482 29.7422 150.914 29.6016C151.352 29.4609 151.841 29.3906 152.383 29.3906C153.023 29.3906 153.594 29.5 154.094 29.7188C154.599 29.9323 154.995 30.2552 155.281 30.6875C155.573 31.1198 155.719 31.6641 155.719 32.3203V36.0078C155.719 36.4297 155.745 36.7917 155.797 37.0938C155.854 37.3906 155.938 37.6484 156.047 37.8672V38H153.945C153.846 37.7865 153.771 37.5156 153.719 37.1875C153.667 36.8542 153.641 36.526 153.641 36.2031ZM153.93 32.8516L153.945 34.0781H152.641C152.318 34.0781 152.034 34.112 151.789 34.1797C151.544 34.2422 151.344 34.3359 151.188 34.4609C151.031 34.5807 150.914 34.7266 150.836 34.8984C150.758 35.0651 150.719 35.2552 150.719 35.4688C150.719 35.6771 150.766 35.8646 150.859 36.0312C150.958 36.1979 151.099 36.3307 151.281 36.4297C151.469 36.5234 151.688 36.5703 151.938 36.5703C152.302 36.5703 152.62 36.4974 152.891 36.3516C153.161 36.2005 153.372 36.0182 153.523 35.8047C153.674 35.5911 153.755 35.388 153.766 35.1953L154.359 36.0859C154.286 36.2995 154.177 36.526 154.031 36.7656C153.885 37.0052 153.698 37.2292 153.469 37.4375C153.24 37.6458 152.964 37.8177 152.641 37.9531C152.318 38.0885 151.943 38.1562 151.516 38.1562C150.969 38.1562 150.479 38.0469 150.047 37.8281C149.615 37.6094 149.273 37.3099 149.023 36.9297C148.773 36.5495 148.648 36.1172 148.648 35.6328C148.648 35.1849 148.732 34.7891 148.898 34.4453C149.065 34.1016 149.312 33.8125 149.641 33.5781C149.969 33.3385 150.375 33.1589 150.859 33.0391C151.349 32.9141 151.909 32.8516 152.539 32.8516H153.93ZM162.648 36.2031V26H164.727V38H162.852L162.648 36.2031ZM157.219 33.875V33.7109C157.219 33.0651 157.292 32.4792 157.438 31.9531C157.589 31.4219 157.807 30.9661 158.094 30.5859C158.38 30.2057 158.727 29.9115 159.133 29.7031C159.544 29.4948 160.01 29.3906 160.531 29.3906C161.036 29.3906 161.477 29.4922 161.852 29.6953C162.232 29.8984 162.555 30.1875 162.82 30.5625C163.091 30.9375 163.307 31.3828 163.469 31.8984C163.63 32.4089 163.747 32.9714 163.82 33.5859V34.0312C163.747 34.6302 163.63 35.1797 163.469 35.6797C163.307 36.1797 163.091 36.6172 162.82 36.9922C162.555 37.362 162.232 37.6484 161.852 37.8516C161.471 38.0547 161.026 38.1562 160.516 38.1562C160 38.1562 159.536 38.0495 159.125 37.8359C158.719 37.6224 158.372 37.3229 158.086 36.9375C157.805 36.5521 157.589 36.099 157.438 35.5781C157.292 35.0573 157.219 34.4896 157.219 33.875ZM159.289 33.7109V33.875C159.289 34.2396 159.32 34.5807 159.383 34.8984C159.445 35.2161 159.547 35.4974 159.688 35.7422C159.828 35.9818 160.008 36.1693 160.227 36.3047C160.451 36.4401 160.721 36.5078 161.039 36.5078C161.445 36.5078 161.779 36.4193 162.039 36.2422C162.305 36.0599 162.51 35.8125 162.656 35.5C162.802 35.1823 162.896 34.8255 162.938 34.4297V33.2031C162.917 32.8906 162.862 32.6016 162.773 32.3359C162.69 32.0703 162.57 31.8411 162.414 31.6484C162.263 31.4557 162.076 31.3047 161.852 31.1953C161.628 31.0859 161.362 31.0312 161.055 31.0312C160.737 31.0312 160.466 31.1016 160.242 31.2422C160.018 31.3776 159.836 31.5677 159.695 31.8125C159.555 32.0573 159.451 32.3411 159.383 32.6641C159.32 32.987 159.289 33.3359 159.289 33.7109ZM172.641 31.1719V41.25H170.57V29.5469H172.484L172.641 31.1719ZM178.07 33.6875V33.8516C178.07 34.4661 177.997 35.0365 177.852 35.5625C177.711 36.0833 177.503 36.5391 177.227 36.9297C176.951 37.3151 176.607 37.6172 176.195 37.8359C175.789 38.0495 175.32 38.1562 174.789 38.1562C174.268 38.1562 173.815 38.0573 173.43 37.8594C173.044 37.6562 172.719 37.3698 172.453 37C172.188 36.6302 171.974 36.2005 171.812 35.7109C171.656 35.2161 171.539 34.6771 171.461 34.0938V33.5703C171.539 32.9505 171.656 32.388 171.812 31.8828C171.974 31.3724 172.188 30.9323 172.453 30.5625C172.719 30.1875 173.042 29.8984 173.422 29.6953C173.807 29.4922 174.258 29.3906 174.773 29.3906C175.31 29.3906 175.781 29.4922 176.188 29.6953C176.599 29.8984 176.945 30.1901 177.227 30.5703C177.508 30.9505 177.719 31.4036 177.859 31.9297C178 32.4557 178.07 33.0417 178.07 33.6875ZM176 33.8516V33.6875C176 33.3125 175.966 32.9661 175.898 32.6484C175.831 32.3255 175.727 32.0443 175.586 31.8047C175.445 31.5599 175.263 31.3698 175.039 31.2344C174.815 31.099 174.544 31.0312 174.227 31.0312C173.909 31.0312 173.635 31.0833 173.406 31.1875C173.177 31.2917 172.99 31.4401 172.844 31.6328C172.698 31.8255 172.583 32.0547 172.5 32.3203C172.422 32.5807 172.37 32.8698 172.344 33.1875V34.4844C172.391 34.8698 172.482 35.2161 172.617 35.5234C172.753 35.8307 172.951 36.0755 173.211 36.2578C173.477 36.4401 173.82 36.5312 174.242 36.5312C174.56 36.5312 174.831 36.4609 175.055 36.3203C175.279 36.1797 175.461 35.987 175.602 35.7422C175.742 35.4922 175.844 35.2057 175.906 34.8828C175.969 34.5599 176 34.2161 176 33.8516ZM181.766 29.5469V38H179.695V29.5469H181.766ZM179.555 27.3359C179.555 27.0286 179.659 26.7734 179.867 26.5703C180.081 26.3672 180.367 26.2656 180.727 26.2656C181.086 26.2656 181.37 26.3672 181.578 26.5703C181.792 26.7734 181.898 27.0286 181.898 27.3359C181.898 27.638 181.792 27.8906 181.578 28.0938C181.37 28.2969 181.086 28.3984 180.727 28.3984C180.367 28.3984 180.081 28.2969 179.867 28.0938C179.659 27.8906 179.555 27.638 179.555 27.3359ZM187.203 36.5312C187.495 36.5312 187.755 36.474 187.984 36.3594C188.214 36.2448 188.396 36.0833 188.531 35.875C188.672 35.6667 188.747 35.4245 188.758 35.1484H190.703C190.693 35.7214 190.531 36.2344 190.219 36.6875C189.906 37.1406 189.49 37.5 188.969 37.7656C188.453 38.026 187.875 38.1562 187.234 38.1562C186.583 38.1562 186.016 38.0469 185.531 37.8281C185.047 37.6094 184.643 37.3047 184.32 36.9141C184.003 36.5234 183.763 36.0703 183.602 35.5547C183.445 35.0391 183.367 34.487 183.367 33.8984V33.6484C183.367 33.0599 183.445 32.5078 183.602 31.9922C183.763 31.4766 184.003 31.0234 184.32 30.6328C184.643 30.2422 185.047 29.9375 185.531 29.7188C186.016 29.5 186.581 29.3906 187.227 29.3906C187.909 29.3906 188.508 29.5234 189.023 29.7891C189.544 30.0547 189.951 30.4297 190.242 30.9141C190.539 31.3984 190.693 31.9688 190.703 32.625H188.758C188.747 32.3229 188.68 32.0521 188.555 31.8125C188.43 31.5729 188.253 31.3802 188.023 31.2344C187.794 31.0885 187.516 31.0156 187.188 31.0156C186.839 31.0156 186.547 31.0885 186.312 31.2344C186.083 31.3802 185.904 31.5807 185.773 31.8359C185.648 32.0859 185.56 32.3672 185.508 32.6797C185.461 32.987 185.438 33.3099 185.438 33.6484V33.8984C185.438 34.2422 185.461 34.5703 185.508 34.8828C185.56 35.1953 185.648 35.4766 185.773 35.7266C185.904 35.9714 186.083 36.1667 186.312 36.3125C186.547 36.4583 186.844 36.5312 187.203 36.5312ZM196.078 29.5469V31.0312H191.234V29.5469H196.078ZM192.531 27.4688H194.602V35.5625C194.602 35.8125 194.635 36.0052 194.703 36.1406C194.771 36.276 194.872 36.3672 195.008 36.4141C195.143 36.4609 195.305 36.4844 195.492 36.4844C195.628 36.4844 195.753 36.4766 195.867 36.4609C195.982 36.4453 196.078 36.4297 196.156 36.4141L196.164 37.9609C195.992 38.0182 195.797 38.0651 195.578 38.1016C195.365 38.138 195.122 38.1562 194.852 38.1562C194.388 38.1562 193.982 38.0781 193.633 37.9219C193.284 37.7604 193.013 37.5026 192.82 37.1484C192.628 36.7891 192.531 36.3151 192.531 35.7266V27.4688ZM202.484 35.9922V29.5469H204.562V38H202.609L202.484 35.9922ZM202.75 34.2422L203.391 34.2266C203.391 34.7943 203.328 35.3177 203.203 35.7969C203.078 36.276 202.883 36.6927 202.617 37.0469C202.357 37.3958 202.026 37.6693 201.625 37.8672C201.224 38.0599 200.75 38.1562 200.203 38.1562C199.786 38.1562 199.406 38.099 199.062 37.9844C198.719 37.8646 198.422 37.6797 198.172 37.4297C197.927 37.1745 197.737 36.849 197.602 36.4531C197.466 36.0521 197.398 35.5703 197.398 35.0078V29.5469H199.461V35.0234C199.461 35.3047 199.492 35.5391 199.555 35.7266C199.622 35.9141 199.714 36.0677 199.828 36.1875C199.948 36.3021 200.086 36.3854 200.242 36.4375C200.404 36.4844 200.576 36.5078 200.758 36.5078C201.258 36.5078 201.651 36.4089 201.938 36.2109C202.229 36.0078 202.438 35.737 202.562 35.3984C202.688 35.0547 202.75 34.6693 202.75 34.2422ZM208.453 31.2734V38H206.391V29.5469H208.344L208.453 31.2734ZM211.023 29.4922L210.992 31.4141C210.878 31.3932 210.747 31.3776 210.602 31.3672C210.461 31.3568 210.328 31.3516 210.203 31.3516C209.885 31.3516 209.607 31.3958 209.367 31.4844C209.128 31.5677 208.927 31.6901 208.766 31.8516C208.609 32.013 208.49 32.2109 208.406 32.4453C208.323 32.6745 208.276 32.9349 208.266 33.2266L207.82 33.1719C207.82 32.6354 207.875 32.138 207.984 31.6797C208.094 31.2214 208.253 30.8203 208.461 30.4766C208.669 30.1328 208.93 29.8672 209.242 29.6797C209.56 29.487 209.924 29.3906 210.336 29.3906C210.451 29.3906 210.573 29.401 210.703 29.4219C210.839 29.4375 210.945 29.4609 211.023 29.4922ZM215.797 38.1562C215.156 38.1562 214.581 38.0521 214.07 37.8438C213.56 37.6354 213.125 37.3464 212.766 36.9766C212.411 36.6016 212.138 36.1667 211.945 35.6719C211.758 35.1719 211.664 34.6354 211.664 34.0625V33.75C211.664 33.099 211.758 32.5078 211.945 31.9766C212.133 31.4401 212.398 30.9792 212.742 30.5938C213.086 30.2083 213.497 29.9115 213.977 29.7031C214.456 29.4948 214.984 29.3906 215.562 29.3906C216.161 29.3906 216.69 29.4922 217.148 29.6953C217.607 29.8932 217.99 30.1745 218.297 30.5391C218.604 30.9036 218.836 31.3411 218.992 31.8516C219.148 32.3568 219.227 32.9167 219.227 33.5312V34.3984H212.602V32.9766H217.195V32.8203C217.185 32.4922 217.122 32.1927 217.008 31.9219C216.893 31.6458 216.716 31.4271 216.477 31.2656C216.237 31.099 215.927 31.0156 215.547 31.0156C215.24 31.0156 214.971 31.0833 214.742 31.2188C214.518 31.349 214.331 31.5365 214.18 31.7812C214.034 32.0208 213.924 32.3073 213.852 32.6406C213.779 32.974 213.742 33.3438 213.742 33.75V34.0625C213.742 34.4167 213.789 34.7448 213.883 35.0469C213.982 35.349 214.125 35.612 214.312 35.8359C214.505 36.0547 214.734 36.2266 215 36.3516C215.271 36.4714 215.578 36.5312 215.922 36.5312C216.354 36.5312 216.745 36.4479 217.094 36.2812C217.448 36.1094 217.755 35.8568 218.016 35.5234L219.055 36.6016C218.878 36.862 218.638 37.112 218.336 37.3516C218.039 37.5911 217.68 37.7865 217.258 37.9375C216.836 38.0833 216.349 38.1562 215.797 38.1562Z" fill="#147BFF"/>
<path d="M284.231 38.7982L286.057 43.2253L290.077 45.2376L286.057 47.2499L284.231 51.677L282.404 47.2499L278.385 45.2376L282.404 43.2253L284.231 38.7982ZM278.385 37.1884L279.298 39.4019L281.308 40.4081L279.298 41.4142L278.385 43.6278L277.471 41.4142L275.462 40.4081L277.471 39.4019L278.385 37.1884Z" fill="#147BFF"/>
<path d="M52.3165 29.545L49.7373 23.295L44.0633 20.4541L49.7373 17.6132L52.3165 11.3632L54.8956 17.6132L60.5696 20.4541L54.8956 23.295L52.3165 29.545ZM60.5696 31.8177L59.2801 28.6927L56.443 27.2723L59.2801 25.8518L60.5696 22.7268L61.8592 25.8518L64.6962 27.2723L61.8592 28.6927L60.5696 31.8177Z" fill="#147BFF"/>
</svg>
